PathFileType	4	(X/Y/Z)	./resultDataOpenSim/trcMotMarkerGrf/sub09/qtm-04-05.trc
DataRate	CameraRate	NumFrames	NumMarkers	Units	OrigDataRate	OrigDataStartFrame	OrigNumFrames
250.000000	250.000000	7	24	m	250.000000	251	501
Frame#	Time	L.Toe.Tip			R.Toe.Tip			L.Ankle.Lat			R.Ankle.Lat			L.Ankle.Med			R.Ankle.Med			L.Heel			R.Heel			L.Knee.Lat			R.Knee.Lat			L.Knee.Med			R.Knee.Med			L.Thigh.Upper			R.Thigh.Upper			L.ASIS			R.ASIS			V.Sacral			L.Acromium			R.Acromium			C7			L.Elbow			R.Elbow			L.Wrist.Lat			R.Wrist.Lat
		X1	Y1	Z1	X2	Y2	Z2	X3	Y3	Z3	X4	Y4	Z4	X5	Y5	Z5	X6	Y6	Z6	X7	Y7	Z7	X8	Y8	Z8	X9	Y9	Z9	X10	Y10	Z10	X11	Y11	Z11	X12	Y12	Z12	X13	Y13	Z13	X14	Y14	Z14	X15	Y15	Z15	X16	Y16	Z16	X17	Y17	Z17	X18	Y18	Z18	X19	Y19	Z19	X20	Y20	Z20	X21	Y21	Z21	X22	Y22	Z22	X23	Y23	Z23	X24	Y24	Z24

251	1	0.19979561	-0.034211045	0.01458462	0.41861674	0.10242118	0.12151184	0.05500149	0.01880717	-0.035075912	0.27763669	0.14030264	0.13946394	0.076633376	0.037191458	0.059963497	0.30518054	0.16998403	0.046741932	-0.017943258	-0.0048280047	0.0079394471	0.21099368	0.1254677	0.083443491	0.15245466	0.42341191	-0.093718621	0.46939841	0.53918056	0.1829365	0.14831645	0.42477591	0.03197794	0.47090997	0.52973365	0.057928984	0.21178896	0.84441039	-0.14595909	0.21327316	0.85449233	0.22466889	0.30512974	0.92213774	-0.083813838	0.29110009	0.93389726	0.15557667	0.13801412	0.99256935	0.027432414	0.33914916	1.377298	-0.12041816	0.28502229	1.3903943	0.2038386	0.24671614	1.4370878	0.029981669	0.20572722	1.0294962	-0.20498557	0.094838298	1.0812255	0.28171173	0.42393856	0.86524951	-0.20107462	0.18922847	0.83115041	0.33659555
252	1.004	0.19984498	-0.03420049	0.014682396	0.43939842	0.10221811	0.12132227	0.054905098	0.01945701	-0.034208415	0.29745836	0.13598979	0.13918359	0.077334152	0.037910249	0.060578876	0.32405926	0.1666078	0.046639304	-0.017747158	-0.0038169219	0.0091341243	0.23096724	0.11943534	0.08343481	0.15285663	0.42399994	-0.093676883	0.47801196	0.54134243	0.18304866	0.1492855	0.42503302	0.032449007	0.47906967	0.53145635	0.058131064	0.21637687	0.8444539	-0.14544763	0.2196547	0.85466154	0.22502557	0.31058354	0.92172593	-0.083966459	0.29736339	0.93377806	0.15546627	0.1439504	0.99243627	0.028012473	0.34529031	1.3770667	-0.1203874	0.29172544	1.3901546	0.20393834	0.25303897	1.4368562	0.030015361	0.21291351	1.0286242	-0.20491314	0.10095752	1.081739	0.28207248	0.43334191	0.86722985	-0.20010784	0.19361139	0.83127226	0.33798947
253	1.008	0.19992972	-0.034152597	0.014603572	0.46011682	0.10211747	0.12128003	0.054826773	0.020116697	-0.033335596	0.31734303	0.13180777	0.13889368	0.078048523	0.038611071	0.061189335	0.34305943	0.16329205	0.046536844	-0.017536518	-0.0028066196	0.010335672	0.25112398	0.11353565	0.083310866	0.15343356	0.424551	-0.093608319	0.48654467	0.54335221	0.18323259	0.15073425	0.42528644	0.032884086	0.48706388	0.53295272	0.058399129	0.22108318	0.84443274	-0.14503616	0.22600732	0.85473106	0.22538864	0.31608469	0.92123277	-0.084096758	0.30364072	0.93357466	0.15536436	0.14983101	0.99226034	0.028429398	0.35143903	1.3767768	-0.12036209	0.29843705	1.3898398	0.20404604	0.25939364	1.436517	0.030088642	0.22007712	1.0276649	-0.20481446	0.10711481	1.0821658	0.28253033	0.44269837	0.86915211	-0.19913068	0.19801867	0.83128917	0.33932498
254	1.012	0.20004373	-0.034068216	0.014357773	0.48080365	0.10212008	0.1213933	0.054771482	0.020806401	-0.032487691	0.33719132	0.12780731	0.13864466	0.078767764	0.039289202	0.061785815	0.36216966	0.16005145	0.046455336	-0.017315938	-0.001795766	0.011551069	0.27156452	0.10776723	0.08298256	0.15416356	0.4250674	-0.093507805	0.49483212	0.54510593	0.18344186	0.15284594	0.42565219	0.033053271	0.49492381	0.53421118	0.058712249	0.22593434	0.84428078	-0.14488461	0.23233578	0.85469814	0.22576495	0.32159906	0.92066162	-0.084207459	0.3099275	0.9332837	0.15527109	0.15573853	0.99206611	0.028827691	0.35760122	1.3764283	-0.12033749	0.30516102	1.3894556	0.20415921	0.26582893	1.4360854	0.030276127	0.22725584	1.0266314	-0.20468729	0.11324902	1.0825138	0.28310531	0.4520049	0.87101418	-0.19814397	0.20245218	0.83120471	0.34061128
255	1.016	0.20015263	-0.033994187	0.014103165	0.50145726	0.10218356	0.12167817	0.054748669	0.021517269	-0.031685109	0.35696487	0.12400625	0.13846194	0.079473381	0.039934588	0.062360651	0.38139126	0.1569045	0.046381137	-0.017093443	-0.00077476486	0.012802235	0.29222231	0.1021706	0.082517879	0.15496059	0.42555335	-0.093379648	0.50279162	0.54655881	0.18364314	0.15525805	0.42624716	0.032971438	0.5027304	0.53522546	0.059019541	0.23082683	0.84395774	-0.14497554	0.23866742	0.85457234	0.22616054	0.32707751	0.92000602	-0.084324609	0.31622545	0.93290393	0.15518674	0.16172981	0.99187734	0.029281917	0.36377397	1.3760165	-0.12031079	0.31189682	1.3890008	0.20427288	0.27231431	1.4356045	0.030536632	0.23446536	1.025532	-0.20452512	0.1193085	1.0827932	0.28378671	0.46126042	0.87281016	-0.19715197	0.20695789	0.83103594	0.34186595
256	1.02	0.20023583	-0.033962571	0.013952057	0.52204895	0.10226471	0.1221374	0.054763535	0.022231972	-0.030947565	0.37668778	0.12040052	0.13833486	0.080147361	0.040541163	0.062905158	0.4007214	0.15386871	0.046295602	-0.016874722	0.00026370579	0.014086088	0.31300745	0.096779438	0.081994269	0.15575904	0.42599993	-0.093229575	0.51049444	0.5477692	0.18388234	0.15725681	0.42707389	0.03293012	0.51054405	0.53599658	0.059288471	0.23560183	0.84349388	-0.1450984	0.24502036	0.85436423	0.22657313	0.33250936	0.91925333	-0.08447706	0.32254154	0.93243543	0.15510942	0.16778853	0.99167276	0.029791004	0.36995127	1.3755361	-0.12028065	0.31864259	1.3884692	0.20438449	0.27878429	1.4350874	0.030771286	0.24170047	1.0243744	-0.20432827	0.12532797	1.083	0.28452543	0.4704683	0.87453482	-0.19615541	0.21159019	0.83080556	0.34310671
257	1.024	0.20029426	-0.033969581	0.013909392	0.54255115	0.1023909	0.12274402	0.054813824	0.022937589	-0.03029269	0.39641058	0.11699283	0.13823475	0.080780561	0.041109804	0.063407777	0.42014183	0.15095873	0.046195216	-0.016655698	0.0013084992	0.015330335	0.33387886	0.091605974	0.081436217	0.15658291	0.42638968	-0.093061413	0.51802809	0.54880088	0.18423278	0.15851604	0.4279855	0.033169072	0.51835592	0.53653985	0.059533772	0.24018686	0.84295754	-0.145043	0.25138173	0.85407705	0.22699481	0.33792385	0.91840692	-0.084668061	0.32888029	0.93187698	0.1550357	0.17384032	0.99138722	0.030314644	0.37613473	1.3749853	-0.12024578	0.32540084	1.3878591	0.20449463	0.28522364	1.4345064	0.030953299	0.24895045	1.0231631	-0.20410665	0.13141052	1.0831126	0.28523344	0.47963414	0.87618823	-0.19515198	0.21636168	0.83052288	0.34433592
